<?xml version="1.0" encoding="utf-8" standalone="no"?>
<!DOCTYPE svg PUBLIC "-//W3C//DTD SVG 1.1//EN"
  "http://www.w3.org/Graphics/SVG/1.1/DTD/svg11.dtd">
<svg xmlns:xlink="http://www.w3.org/1999/xlink" width="597.111414pt" height="237.668243pt" viewBox="0 0 597.111414 237.668243" xmlns="http://www.w3.org/2000/svg" version="1.1">
 <metadata>
  <rdf:RDF xmlns:dc="http://purl.org/dc/elements/1.1/" xmlns:cc="http://creativecommons.org/ns#" xmlns:rdf="http://www.w3.org/1999/02/22-rdf-syntax-ns#">
   <cc:Work>
    <dc:type rdf:resource="http://purl.org/dc/dcmitype/StillImage"/>
    <dc:date>2025-12-09T15:11:33.115506</dc:date>
    <dc:format>image/svg+xml</dc:format>
    <dc:creator>
     <cc:Agent>
      <dc:title>Matplotlib v3.10.7, https://matplotlib.org/</dc:title>
     </cc:Agent>
    </dc:creator>
   </cc:Work>
  </rdf:RDF>
 </metadata>
 <defs>
  <style type="text/css">*{stroke-linejoin: round; stroke-linecap: butt}</style>
 </defs>
 <g id="figure_1">
  <g id="patch_1">
   <path d="M 0 237.668243
L 597.111414 237.668243
L 597.111414 0
L 0 0
z
" style="fill: #ffffff"/>
  </g>
  <g id="axes_1">
   <g id="patch_2">
    <path d="M 31.911414 196.443501
L 285.547778 196.443501
L 285.547778 24.269588
L 31.911414 24.269588
z
" style="fill: #ffffff"/>
   </g>
   <g id="matplotlib.axis_1">
    <g id="xtick_1">
     <g id="line2d_1">
      <defs>
       <path id="m7d32d713ff" d="M 0 0
L 0 3.5
" style="stroke: #000000; stroke-width: 0.8"/>
      </defs>
      <g>
       <use xlink:href="#m7d32d713ff" x="43.44034" y="196.443501" style="stroke: #000000; stroke-width: 0.8"/>
      </g>
     </g>
     <g id="text_1">
      <!-- $\mathdefault{0}$ -->
      <g transform="translate(40.949672 210.362) scale(0.1 -0.1)">
       <defs>
        <path id="CMR17-30" d="M 2688 2025
C 2688 2416 2682 3080 2413 3591
C 2176 4039 1798 4198 1466 4198
C 1158 4198 768 4058 525 3597
C 269 3118 243 2524 243 2025
C 243 1661 250 1106 448 619
C 723 -39 1216 -128 1466 -128
C 1760 -128 2208 -7 2470 600
C 2662 1042 2688 1559 2688 2025
z
M 1466 -26
C 1056 -26 813 325 723 812
C 653 1188 653 1738 653 2096
C 653 2588 653 2997 736 3387
C 858 3929 1216 4096 1466 4096
C 1728 4096 2067 3923 2189 3400
C 2272 3036 2278 2607 2278 2096
C 2278 1680 2278 1169 2202 792
C 2067 95 1690 -26 1466 -26
z
" transform="scale(0.015625)"/>
       </defs>
       <use xlink:href="#CMR17-30" transform="scale(0.996264)"/>
      </g>
     </g>
    </g>
    <g id="xtick_2">
     <g id="line2d_2">
      <g>
       <use xlink:href="#m7d32d713ff" x="90.497179" y="196.443501" style="stroke: #000000; stroke-width: 0.8"/>
      </g>
     </g>
     <g id="text_2">
      <!-- $\mathdefault{10}$ -->
      <g transform="translate(85.515844 210.362) scale(0.1 -0.1)">
       <defs>
        <path id="CMR17-31" d="M 1702 4058
C 1702 4192 1696 4192 1606 4192
C 1357 3916 979 3827 621 3827
C 602 3827 570 3827 563 3808
C 557 3795 557 3782 557 3648
C 755 3648 1088 3686 1344 3839
L 1344 461
C 1344 236 1331 160 781 160
L 589 160
L 589 0
C 896 0 1216 0 1523 0
C 1830 0 2150 0 2458 0
L 2458 160
L 2266 160
C 1715 160 1702 230 1702 458
L 1702 4058
z
" transform="scale(0.015625)"/>
       </defs>
       <use xlink:href="#CMR17-31" transform="scale(0.996264)"/>
       <use xlink:href="#CMR17-30" transform="translate(45.690477 0) scale(0.996264)"/>
      </g>
     </g>
    </g>
    <g id="xtick_3">
     <g id="line2d_3">
      <g>
       <use xlink:href="#m7d32d713ff" x="137.554018" y="196.443501" style="stroke: #000000; stroke-width: 0.8"/>
      </g>
     </g>
     <g id="text_3">
      <!-- $\mathdefault{20}$ -->
      <g transform="translate(132.572683 210.362) scale(0.1 -0.1)">
       <defs>
        <path id="CMR17-32" d="M 2669 989
L 2554 989
C 2490 536 2438 459 2413 420
C 2381 369 1920 369 1830 369
L 602 369
C 832 619 1280 1072 1824 1597
C 2214 1967 2669 2402 2669 3035
C 2669 3790 2067 4224 1395 4224
C 691 4224 262 3604 262 3030
C 262 2780 448 2748 525 2748
C 589 2748 781 2787 781 3010
C 781 3207 614 3264 525 3264
C 486 3264 448 3258 422 3245
C 544 3790 915 4058 1306 4058
C 1862 4058 2227 3617 2227 3035
C 2227 2479 1901 2000 1536 1584
L 262 146
L 262 0
L 2515 0
L 2669 989
z
" transform="scale(0.015625)"/>
       </defs>
       <use xlink:href="#CMR17-32" transform="scale(0.996264)"/>
       <use xlink:href="#CMR17-30" transform="translate(45.690477 0) scale(0.996264)"/>
      </g>
     </g>
    </g>
    <g id="xtick_4">
     <g id="line2d_4">
      <g>
       <use xlink:href="#m7d32d713ff" x="184.610858" y="196.443501" style="stroke: #000000; stroke-width: 0.8"/>
      </g>
     </g>
     <g id="text_4">
      <!-- $\mathdefault{30}$ -->
      <g transform="translate(179.629522 210.362) scale(0.1 -0.1)">
       <defs>
        <path id="CMR17-33" d="M 1414 2157
C 1984 2157 2234 1662 2234 1090
C 2234 320 1824 25 1453 25
C 1114 25 563 194 390 693
C 422 680 454 680 486 680
C 640 680 755 782 755 948
C 755 1133 614 1216 486 1216
C 378 1216 211 1165 211 926
C 211 335 787 -128 1466 -128
C 2176 -128 2720 430 2720 1085
C 2720 1707 2208 2157 1600 2227
C 2086 2328 2554 2756 2554 3329
C 2554 3820 2048 4179 1472 4179
C 890 4179 378 3829 378 3329
C 378 3110 544 3072 627 3072
C 762 3072 877 3155 877 3321
C 877 3486 762 3569 627 3569
C 602 3569 570 3569 544 3557
C 730 3959 1235 4032 1459 4032
C 1683 4032 2106 3925 2106 3320
C 2106 3143 2080 2828 1862 2550
C 1670 2304 1453 2304 1242 2284
C 1210 2284 1062 2269 1037 2269
C 992 2263 966 2257 966 2208
C 966 2163 973 2157 1101 2157
L 1414 2157
z
" transform="scale(0.015625)"/>
       </defs>
       <use xlink:href="#CMR17-33" transform="scale(0.996264)"/>
       <use xlink:href="#CMR17-30" transform="translate(45.690477 0) scale(0.996264)"/>
      </g>
     </g>
    </g>
    <g id="xtick_5">
     <g id="line2d_5">
      <g>
       <use xlink:href="#m7d32d713ff" x="231.667697" y="196.443501" style="stroke: #000000; stroke-width: 0.8"/>
      </g>
     </g>
     <g id="text_5">
      <!-- $\mathdefault{40}$ -->
      <g transform="translate(226.686362 210.362) scale(0.1 -0.1)">
       <defs>
        <path id="CMR17-34" d="M 2150 4122
C 2150 4256 2144 4256 2029 4256
L 128 1254
L 128 1088
L 1779 1088
L 1779 457
C 1779 224 1766 160 1318 160
L 1197 160
L 1197 0
C 1402 0 1747 0 1965 0
C 2182 0 2528 0 2733 0
L 2733 160
L 2611 160
C 2163 160 2150 224 2150 457
L 2150 1088
L 2803 1088
L 2803 1254
L 2150 1254
L 2150 4122
z
M 1798 3703
L 1798 1254
L 256 1254
L 1798 3703
z
" transform="scale(0.015625)"/>
       </defs>
       <use xlink:href="#CMR17-34" transform="scale(0.996264)"/>
       <use xlink:href="#CMR17-30" transform="translate(45.690477 0) scale(0.996264)"/>
      </g>
     </g>
    </g>
    <g id="xtick_6">
     <g id="line2d_6">
      <g>
       <use xlink:href="#m7d32d713ff" x="278.724536" y="196.443501" style="stroke: #000000; stroke-width: 0.8"/>
      </g>
     </g>
     <g id="text_6">
      <!-- $\mathdefault{50}$ -->
      <g transform="translate(273.743201 210.362) scale(0.1 -0.1)">
       <defs>
        <path id="CMR17-35" d="M 730 3692
C 794 3666 1056 3584 1325 3584
C 1920 3584 2246 3911 2432 4100
C 2432 4157 2432 4192 2394 4192
C 2387 4192 2374 4192 2323 4163
C 2099 4058 1837 3973 1517 3973
C 1325 3973 1037 3999 723 4139
C 653 4171 640 4171 634 4171
C 602 4171 595 4164 595 4037
L 595 2203
C 595 2089 595 2057 659 2057
C 691 2057 704 2070 736 2114
C 941 2401 1222 2522 1542 2522
C 1766 2522 2246 2382 2246 1289
C 2246 1085 2246 715 2054 421
C 1894 159 1645 25 1370 25
C 947 25 518 320 403 814
C 429 807 480 795 506 795
C 589 795 749 840 749 1038
C 749 1210 627 1280 506 1280
C 358 1280 262 1190 262 1011
C 262 454 704 -128 1382 -128
C 2042 -128 2669 440 2669 1264
C 2669 2030 2170 2624 1549 2624
C 1222 2624 947 2503 730 2274
L 730 3692
z
" transform="scale(0.015625)"/>
       </defs>
       <use xlink:href="#CMR17-35" transform="scale(0.996264)"/>
       <use xlink:href="#CMR17-30" transform="translate(45.690477 0) scale(0.996264)"/>
      </g>
     </g>
    </g>
    <g id="text_7">
     <!-- optimizer iterations -->
     <g transform="translate(95.995177 227.368766) scale(0.16 -0.16)">
      <defs>
       <path id="CMSS17-6f" d="M 2829 1356
C 2829 2176 2221 2816 1504 2816
C 768 2816 173 2157 173 1356
C 173 544 787 -64 1498 -64
C 2227 -64 2829 563 2829 1356
z
M 1504 337
C 1050 337 659 709 659 1408
C 659 2151 1114 2427 1498 2427
C 1914 2427 2342 2126 2342 1408
C 2342 683 1926 337 1504 337
z
" transform="scale(0.015625)"/>
       <path id="CMSS17-70" d="M 966 333
C 1178 129 1466 -5 1773 -5
C 2368 -5 2880 603 2880 1412
C 2880 2159 2496 2816 1946 2816
C 1626 2816 1242 2702 954 2472
L 954 2765
L 480 2765
L 480 -1216
L 966 -1216
L 966 333
z
M 966 2100
C 1018 2176 1235 2415 1587 2415
C 2035 2415 2394 1960 2394 1412
C 2394 787 1958 384 1530 384
C 1402 384 1267 415 1139 523
C 966 674 966 768 966 857
L 966 2100
z
" transform="scale(0.015625)"/>
       <path id="CMSS17-74" d="M 1069 2368
L 1901 2368
L 1901 2737
L 1069 2737
L 1069 3520
L 614 3520
L 614 2737
L 109 2737
L 109 2368
L 602 2368
L 602 749
C 602 384 685 -64 1107 -64
C 1427 -64 1722 25 2003 172
L 1901 548
C 1747 414 1562 337 1363 337
C 1082 337 1069 696 1069 856
L 1069 2368
z
" transform="scale(0.015625)"/>
       <path id="CMSS17-69" d="M 979 4183
L 442 4183
L 442 3648
L 979 3648
L 979 4183
z
M 947 2739
L 474 2739
L 474 0
L 947 0
L 947 2739
z
" transform="scale(0.015625)"/>
       <path id="CMSS17-6d" d="M 4288 1877
C 4288 2308 4179 2816 3462 2816
C 2982 2816 2694 2516 2566 2331
C 2451 2670 2182 2816 1798 2816
C 1363 2816 1088 2568 941 2389
L 941 2758
L 474 2758
L 474 0
L 960 0
L 960 1559
C 960 1939 1101 2428 1555 2428
C 2138 2428 2138 2016 2138 1829
L 2138 0
L 2624 0
L 2624 1559
C 2624 1939 2765 2428 3219 2428
C 3802 2428 3802 2016 3802 1829
L 3802 0
L 4288 0
L 4288 1877
z
" transform="scale(0.015625)"/>
       <path id="CMSS17-7a" d="M 2400 2502
L 2400 2750
L 250 2750
L 250 2368
L 1069 2368
C 1146 2368 1222 2368 1299 2368
L 1747 2368
L 166 261
L 166 0
L 2419 0
L 2419 395
L 1549 395
C 1472 395 1395 395 1318 395
L 826 395
L 2400 2502
z
" transform="scale(0.015625)"/>
       <path id="CMSS17-65" d="M 2502 1377
C 2502 1590 2490 2003 2285 2345
C 2061 2713 1696 2816 1421 2816
C 755 2816 192 2188 192 1375
C 192 582 774 -64 1510 -64
C 1798 -64 2150 19 2470 248
C 2470 274 2458 414 2451 420
C 2451 433 2432 630 2432 656
C 2125 407 1773 325 1517 325
C 1107 325 666 667 646 1377
L 2502 1377
z
M 698 1728
C 781 2084 1062 2421 1421 2421
C 1517 2421 1965 2421 2080 1728
L 698 1728
z
" transform="scale(0.015625)"/>
       <path id="CMSS17-72" d="M 954 1363
C 954 1965 1395 2368 1958 2368
L 1958 2789
C 1549 2789 1165 2585 934 2253
L 934 2758
L 480 2758
L 480 0
L 954 0
L 954 1363
z
" transform="scale(0.015625)"/>
       <path id="CMSS17-61" d="M 2406 1791
C 2406 2392 1978 2808 1402 2808
C 1120 2808 813 2757 461 2553
L 499 2135
C 659 2248 934 2432 1395 2432
C 1722 2432 1920 2180 1920 1782
L 1920 1536
C 896 1536 256 1238 256 726
C 256 461 416 -64 947 -64
C 1043 -64 1562 -64 1933 217
L 1933 -19
L 2406 -19
L 2406 1791
z
M 1920 816
C 1920 701 1920 548 1728 434
C 1562 325 1350 325 1261 325
C 941 325 723 511 723 744
C 723 1211 1722 1211 1920 1211
L 1920 816
z
" transform="scale(0.015625)"/>
       <path id="CMSS17-6e" d="M 2618 1877
C 2618 2283 2522 2816 1798 2816
C 1389 2816 1120 2606 941 2389
L 941 2758
L 474 2758
L 474 0
L 960 0
L 960 1559
C 960 1964 1114 2428 1549 2428
C 2112 2428 2131 2048 2131 1829
L 2131 0
L 2618 0
L 2618 1877
z
" transform="scale(0.015625)"/>
       <path id="CMSS17-73" d="M 2061 2627
C 1683 2807 1389 2807 1197 2807
C 742 2807 198 2648 198 2003
C 198 1359 902 1218 1094 1179
C 1389 1122 1715 1058 1715 740
C 1715 337 1254 337 1171 337
C 915 337 563 407 243 638
L 166 210
C 531 0 883 -64 1178 -64
C 1965 -64 2163 416 2163 781
C 2163 1094 1984 1305 1862 1401
C 1651 1568 1574 1587 1050 1696
C 960 1709 646 1779 646 2066
C 646 2432 1050 2432 1139 2432
C 1555 2432 1811 2303 1984 2208
L 2061 2627
z
" transform="scale(0.015625)"/>
      </defs>
      <use xlink:href="#CMSS17-6f" transform="scale(0.996264)"/>
      <use xlink:href="#CMSS17-70" transform="translate(46.843624 0) scale(0.996264)"/>
      <use xlink:href="#CMSS17-74" transform="translate(95.048567 0) scale(0.996264)"/>
      <use xlink:href="#CMSS17-69" transform="translate(128.880133 0) scale(0.996264)"/>
      <use xlink:href="#CMSS17-6d" transform="translate(151.060856 0) scale(0.996264)"/>
      <use xlink:href="#CMSS17-69" transform="translate(225.290111 0) scale(0.996264)"/>
      <use xlink:href="#CMSS17-7a" transform="translate(247.470834 0) scale(0.996264)"/>
      <use xlink:href="#CMSS17-65" transform="translate(288.148706 0) scale(0.996264)"/>
      <use xlink:href="#CMSS17-72" transform="translate(329.787528 0) scale(0.996264)"/>
      <use xlink:href="#CMSS17-69" transform="translate(392.926413 0) scale(0.996264)"/>
      <use xlink:href="#CMSS17-74" transform="translate(415.107136 0) scale(0.996264)"/>
      <use xlink:href="#CMSS17-65" transform="translate(448.938703 0) scale(0.996264)"/>
      <use xlink:href="#CMSS17-72" transform="translate(490.577525 0) scale(0.996264)"/>
      <use xlink:href="#CMSS17-61" transform="translate(522.487297 0) scale(0.996264)"/>
      <use xlink:href="#CMSS17-74" transform="translate(567.409218 0) scale(0.996264)"/>
      <use xlink:href="#CMSS17-69" transform="translate(601.240785 0) scale(0.996264)"/>
      <use xlink:href="#CMSS17-6f" transform="translate(623.421508 0) scale(0.996264)"/>
      <use xlink:href="#CMSS17-6e" transform="translate(670.265131 0) scale(0.996264)"/>
      <use xlink:href="#CMSS17-73" transform="translate(718.470074 0) scale(0.996264)"/>
     </g>
    </g>
   </g>
   <g id="matplotlib.axis_2">
    <g id="ytick_1">
     <g id="line2d_7">
      <defs>
       <path id="m52434a5c5a" d="M 0 0
L -3.5 0
" style="stroke: #000000; stroke-width: 0.8"/>
      </defs>
      <g>
       <use xlink:href="#m52434a5c5a" x="31.911414" y="188.617414" style="stroke: #000000; stroke-width: 0.8"/>
      </g>
     </g>
     <g id="text_8">
      <!-- $\mathdefault{0.00}$ -->
      <g transform="translate(7.2 192.076664) scale(0.1 -0.1)">
       <defs>
        <path id="CMMI12-3a" d="M 1178 307
C 1178 492 1024 619 870 619
C 685 619 557 466 557 313
C 557 128 710 0 864 0
C 1050 0 1178 153 1178 307
z
" transform="scale(0.015625)"/>
       </defs>
       <use xlink:href="#CMR17-30" transform="scale(0.996264)"/>
       <use xlink:href="#CMMI12-3a" transform="translate(45.690477 0) scale(0.996264)"/>
       <use xlink:href="#CMR17-30" transform="translate(72.787654 0) scale(0.996264)"/>
       <use xlink:href="#CMR17-30" transform="translate(118.478131 0) scale(0.996264)"/>
      </g>
     </g>
    </g>
    <g id="ytick_2">
     <g id="line2d_8">
      <g>
       <use xlink:href="#m52434a5c5a" x="31.911414" y="163.812083" style="stroke: #000000; stroke-width: 0.8"/>
      </g>
     </g>
     <g id="text_9">
      <!-- $\mathdefault{0.05}$ -->
      <g transform="translate(7.2 167.271332) scale(0.1 -0.1)">
       <use xlink:href="#CMR17-30" transform="scale(0.996264)"/>
       <use xlink:href="#CMMI12-3a" transform="translate(45.690477 0) scale(0.996264)"/>
       <use xlink:href="#CMR17-30" transform="translate(72.787654 0) scale(0.996264)"/>
       <use xlink:href="#CMR17-35" transform="translate(118.478131 0) scale(0.996264)"/>
      </g>
     </g>
    </g>
    <g id="ytick_3">
     <g id="line2d_9">
      <g>
       <use xlink:href="#m52434a5c5a" x="31.911414" y="139.006751" style="stroke: #000000; stroke-width: 0.8"/>
      </g>
     </g>
     <g id="text_10">
      <!-- $\mathdefault{0.10}$ -->
      <g transform="translate(7.2 142.466) scale(0.1 -0.1)">
       <use xlink:href="#CMR17-30" transform="scale(0.996264)"/>
       <use xlink:href="#CMMI12-3a" transform="translate(45.690477 0) scale(0.996264)"/>
       <use xlink:href="#CMR17-31" transform="translate(72.787654 0) scale(0.996264)"/>
       <use xlink:href="#CMR17-30" transform="translate(118.478131 0) scale(0.996264)"/>
      </g>
     </g>
    </g>
    <g id="ytick_4">
     <g id="line2d_10">
      <g>
       <use xlink:href="#m52434a5c5a" x="31.911414" y="114.201419" style="stroke: #000000; stroke-width: 0.8"/>
      </g>
     </g>
     <g id="text_11">
      <!-- $\mathdefault{0.15}$ -->
      <g transform="translate(7.2 117.660668) scale(0.1 -0.1)">
       <use xlink:href="#CMR17-30" transform="scale(0.996264)"/>
       <use xlink:href="#CMMI12-3a" transform="translate(45.690477 0) scale(0.996264)"/>
       <use xlink:href="#CMR17-31" transform="translate(72.787654 0) scale(0.996264)"/>
       <use xlink:href="#CMR17-35" transform="translate(118.478131 0) scale(0.996264)"/>
      </g>
     </g>
    </g>
    <g id="ytick_5">
     <g id="line2d_11">
      <g>
       <use xlink:href="#m52434a5c5a" x="31.911414" y="89.396087" style="stroke: #000000; stroke-width: 0.8"/>
      </g>
     </g>
     <g id="text_12">
      <!-- $\mathdefault{0.20}$ -->
      <g transform="translate(7.2 92.855336) scale(0.1 -0.1)">
       <use xlink:href="#CMR17-30" transform="scale(0.996264)"/>
       <use xlink:href="#CMMI12-3a" transform="translate(45.690477 0) scale(0.996264)"/>
       <use xlink:href="#CMR17-32" transform="translate(72.787654 0) scale(0.996264)"/>
       <use xlink:href="#CMR17-30" transform="translate(118.478131 0) scale(0.996264)"/>
      </g>
     </g>
    </g>
    <g id="ytick_6">
     <g id="line2d_12">
      <g>
       <use xlink:href="#m52434a5c5a" x="31.911414" y="64.590756" style="stroke: #000000; stroke-width: 0.8"/>
      </g>
     </g>
     <g id="text_13">
      <!-- $\mathdefault{0.25}$ -->
      <g transform="translate(7.2 68.050005) scale(0.1 -0.1)">
       <use xlink:href="#CMR17-30" transform="scale(0.996264)"/>
       <use xlink:href="#CMMI12-3a" transform="translate(45.690477 0) scale(0.996264)"/>
       <use xlink:href="#CMR17-32" transform="translate(72.787654 0) scale(0.996264)"/>
       <use xlink:href="#CMR17-35" transform="translate(118.478131 0) scale(0.996264)"/>
      </g>
     </g>
    </g>
    <g id="ytick_7">
     <g id="line2d_13">
      <g>
       <use xlink:href="#m52434a5c5a" x="31.911414" y="39.785424" style="stroke: #000000; stroke-width: 0.8"/>
      </g>
     </g>
     <g id="text_14">
      <!-- $\mathdefault{0.30}$ -->
      <g transform="translate(7.2 43.244673) scale(0.1 -0.1)">
       <use xlink:href="#CMR17-30" transform="scale(0.996264)"/>
       <use xlink:href="#CMMI12-3a" transform="translate(45.690477 0) scale(0.996264)"/>
       <use xlink:href="#CMR17-33" transform="translate(72.787654 0) scale(0.996264)"/>
       <use xlink:href="#CMR17-30" transform="translate(118.478131 0) scale(0.996264)"/>
      </g>
     </g>
    </g>
   </g>
   <g id="line2d_14">
    <path d="M 43.44034 186.262794
L 48.146024 188.617414
L 52.851708 180.781769
L 57.557392 180.80779
L 62.263076 173.440301
L 66.968759 171.060605
L 71.674443 171.377835
L 76.380127 180.531131
L 81.085811 174.558767
L 85.791495 171.344361
L 90.497179 188.617414
L 95.202863 180.793478
L 99.908547 183.113679
L 104.614231 180.321182
L 109.319915 181.655392
L 114.025599 172.030628
L 118.731283 175.337529
L 123.436967 184.837389
L 128.142651 180.455195
L 132.848334 182.105097
L 137.554018 170.633374
L 142.259702 175.812073
L 146.965386 177.259714
L 151.67107 168.471078
L 156.376754 173.376429
L 161.082438 170.022807
L 165.788122 172.632087
L 170.493806 172.000703
L 175.19949 172.264706
L 179.905174 172.601215
L 184.610858 167.288031
L 189.316542 176.851645
L 194.022225 179.895371
L 198.727909 172.087521
L 203.433593 174.645821
L 208.139277 179.974737
L 212.844961 180.46655
L 217.550645 168.792921
L 222.256329 174.738081
L 226.962013 180.474475
L 231.667697 179.425558
L 236.373381 186.119674
L 241.079065 178.689968
L 245.784749 174.733113
L 250.490433 163.788805
L 255.196117 163.978883
L 259.9018 167.298676
L 264.607484 173.223137
L 269.313168 167.698585
L 274.018852 172.933349
" clip-path="url(#pa2ef743785)" style="fill: none; stroke: #ff4a4a; stroke-width: 2; stroke-linecap: square"/>
   </g>
   <g id="line2d_15">
    <path d="M 43.44034 188.109516
L 48.146024 188.109516
L 52.851708 188.617414
L 57.557392 188.617414
L 62.263076 188.617414
L 66.968759 188.617414
L 71.674443 187.612617
L 76.380127 187.612617
L 81.085811 188.617414
L 85.791495 188.617414
L 90.497179 187.623617
L 95.202863 187.623617
L 99.908547 180.516819
L 104.614231 180.516819
L 109.319915 187.531121
L 114.025599 187.531121
L 118.731283 188.119688
L 123.436967 188.119688
L 128.142651 187.154396
L 132.848334 187.154396
L 137.554018 188.617414
L 142.259702 188.617414
L 146.965386 187.128611
L 151.67107 187.128611
L 156.376754 188.122172
L 161.082438 188.122172
L 165.788122 188.617414
L 170.493806 188.617414
L 175.19949 188.617414
L 179.905174 188.617414
L 184.610858 187.620778
L 189.316542 187.620778
L 194.022225 188.617414
L 198.727909 188.617414
L 203.433593 187.621843
L 208.139277 187.621843
L 212.844961 188.617414
L 217.550645 188.617414
L 222.256329 188.617414
L 226.962013 188.617414
L 231.667697 187.618768
L 236.373381 187.618768
L 241.079065 188.617414
L 245.784749 188.617414
L 250.490433 188.617414
L 255.196117 188.617414
L 259.9018 186.864844
L 264.607484 186.864844
L 269.313168 188.617414
L 274.018852 188.617414
" clip-path="url(#pa2ef743785)" style="fill: none; stroke: #4aff77; stroke-width: 2; stroke-linecap: square"/>
   </g>
   <g id="line2d_16">
    <path d="M 43.44034 41.732146
L 48.146024 128.795356
L 52.851708 112.119787
L 57.557392 55.087972
L 62.263076 68.996116
L 66.968759 61.530257
L 71.674443 54.120988
L 76.380127 68.631889
L 81.085811 71.575733
L 85.791495 59.464306
L 90.497179 137.053165
L 95.202863 132.061732
L 99.908547 132.849253
L 104.614231 132.67869
L 109.319915 91.074349
L 114.025599 49.030555
L 118.731283 121.318993
L 123.436967 123.496963
L 128.142651 130.877572
L 132.848334 64.424477
L 137.554018 63.119225
L 142.259702 76.112414
L 146.965386 69.043509
L 151.67107 52.07808
L 156.376754 65.696763
L 161.082438 72.92214
L 165.788122 51.319064
L 170.493806 60.401814
L 175.19949 75.798004
L 179.905174 52.505545
L 184.610858 56.323092
L 189.316542 76.468914
L 194.022225 60.957803
L 198.727909 55.629392
L 203.433593 69.707122
L 208.139277 73.074052
L 212.844961 50.423911
L 217.550645 72.737235
L 222.256329 104.828029
L 226.962013 133.441259
L 231.667697 133.061768
L 236.373381 131.92735
L 241.079065 117.016722
L 245.784749 72.773184
L 250.490433 66.492545
L 255.196117 39.387372
L 259.9018 57.88074
L 264.607484 66.556112
L 269.313168 32.095675
L 274.018852 60.03491
" clip-path="url(#pa2ef743785)" style="fill: none; stroke: #1b67ff; stroke-width: 2; stroke-linecap: square"/>
   </g>
   <g id="patch_3">
    <path d="M 31.911414 196.443501
L 31.911414 24.269588
" style="fill: none; stroke: #000000; stroke-width: 0.8; stroke-linejoin: miter; stroke-linecap: square"/>
   </g>
   <g id="patch_4">
    <path d="M 285.547778 196.443501
L 285.547778 24.269588
" style="fill: none; stroke: #000000; stroke-width: 0.8; stroke-linejoin: miter; stroke-linecap: square"/>
   </g>
   <g id="patch_5">
    <path d="M 31.911414 196.443501
L 285.547778 196.443501
" style="fill: none; stroke: #000000; stroke-width: 0.8; stroke-linejoin: miter; stroke-linecap: square"/>
   </g>
   <g id="patch_6">
    <path d="M 31.911414 24.269588
L 285.547778 24.269588
" style="fill: none; stroke: #000000; stroke-width: 0.8; stroke-linejoin: miter; stroke-linecap: square"/>
   </g>
   <g id="text_15">
    <!-- optimization times -->
    <g transform="translate(98.596514 18.269588) scale(0.16 -0.16)">
     <use xlink:href="#CMSS17-6f" transform="scale(0.996264)"/>
     <use xlink:href="#CMSS17-70" transform="translate(46.843624 0) scale(0.996264)"/>
     <use xlink:href="#CMSS17-74" transform="translate(95.048567 0) scale(0.996264)"/>
     <use xlink:href="#CMSS17-69" transform="translate(128.880133 0) scale(0.996264)"/>
     <use xlink:href="#CMSS17-6d" transform="translate(151.060856 0) scale(0.996264)"/>
     <use xlink:href="#CMSS17-69" transform="translate(225.290111 0) scale(0.996264)"/>
     <use xlink:href="#CMSS17-7a" transform="translate(247.470834 0) scale(0.996264)"/>
     <use xlink:href="#CMSS17-61" transform="translate(288.148706 0) scale(0.996264)"/>
     <use xlink:href="#CMSS17-74" transform="translate(333.070626 0) scale(0.996264)"/>
     <use xlink:href="#CMSS17-69" transform="translate(366.902193 0) scale(0.996264)"/>
     <use xlink:href="#CMSS17-6f" transform="translate(389.082916 0) scale(0.996264)"/>
     <use xlink:href="#CMSS17-6e" transform="translate(435.92654 0) scale(0.996264)"/>
     <use xlink:href="#CMSS17-74" transform="translate(515.360595 0) scale(0.996264)"/>
     <use xlink:href="#CMSS17-69" transform="translate(549.192162 0) scale(0.996264)"/>
     <use xlink:href="#CMSS17-6d" transform="translate(571.372885 0) scale(0.996264)"/>
     <use xlink:href="#CMSS17-65" transform="translate(645.60214 0) scale(0.996264)"/>
     <use xlink:href="#CMSS17-73" transform="translate(687.240962 0) scale(0.996264)"/>
    </g>
   </g>
   <g id="legend_1">
    <g id="patch_7">
     <path d="M 169.088175 132.762312
L 278.547778 132.762312
Q 280.547778 132.762312 280.547778 130.762312
L 280.547778 89.950777
Q 280.547778 87.950777 278.547778 87.950777
L 169.088175 87.950777
Q 167.088175 87.950777 167.088175 89.950777
L 167.088175 130.762312
Q 167.088175 132.762312 169.088175 132.762312
z
" style="fill: #ffffff; opacity: 0.8; stroke: #cccccc; stroke-linejoin: miter"/>
    </g>
    <g id="line2d_17">
     <path d="M 171.088175 95.450777
L 181.088175 95.450777
L 191.088175 95.450777
" style="fill: none; stroke: #ff4a4a; stroke-width: 2; stroke-linecap: square"/>
    </g>
    <g id="text_16">
     <!-- ask=fit model -->
     <g transform="translate(199.088175 98.950777) scale(0.1 -0.1)">
      <defs>
       <path id="CMSS17-6b" d="M 1696 1688
L 2688 2739
L 2074 2739
L 954 1554
L 954 4416
L 480 4416
L 480 0
L 947 0
L 947 892
L 1376 1344
L 2278 0
L 2822 0
L 1696 1688
z
" transform="scale(0.015625)"/>
       <path id="CMSS17-3d" d="M 4147 2017
C 4243 2017 4339 2017 4339 2125
C 4339 2240 4230 2240 4122 2240
L 550 2240
C 442 2240 333 2240 333 2125
C 333 2017 429 2017 525 2017
L 4147 2017
z
M 4122 896
C 4230 896 4339 896 4339 1011
C 4339 1119 4243 1119 4147 1119
L 525 1119
C 429 1119 333 1119 333 1011
C 333 896 442 896 550 896
L 4122 896
z
" transform="scale(0.015625)"/>
       <path id="CMSS17-c" d="M 2752 4416
L 2240 4416
L 2240 3906
L 2752 3906
L 2752 4416
z
M 2733 2737
L 2259 2737
L 2259 0
L 2733 0
L 2733 2737
z
M 1075 2368
L 1773 2368
L 1773 2737
L 1062 2737
L 1062 3578
C 1062 3919 1216 4092 1421 4092
C 1542 4092 1664 4056 1773 3992
L 1773 4410
C 1722 4428 1574 4480 1421 4480
C 941 4480 602 3993 602 3372
L 602 2737
L 160 2737
L 160 2368
L 602 2368
L 602 0
L 1075 0
L 1075 2368
z
" transform="scale(0.015625)"/>
       <path id="CMSS17-64" d="M 2611 4416
L 2138 4416
L 2138 2438
C 1939 2603 1613 2756 1254 2756
C 672 2756 211 2131 211 1347
C 211 562 666 -64 1235 -64
C 1677 -64 1971 172 2125 306
L 2125 -13
L 2611 -13
L 2611 4416
z
M 2125 836
C 2125 747 2125 653 1926 482
C 1798 375 1645 325 1498 325
C 1152 325 698 576 698 1340
C 698 2134 1210 2368 1562 2368
C 1798 2368 1990 2254 2125 2065
L 2125 836
z
" transform="scale(0.015625)"/>
       <path id="CMSS17-6c" d="M 947 4416
L 474 4416
L 474 0
L 947 0
L 947 4416
z
" transform="scale(0.015625)"/>
      </defs>
      <use xlink:href="#CMSS17-61" transform="scale(0.996264)"/>
      <use xlink:href="#CMSS17-73" transform="translate(44.921921 0) scale(0.996264)"/>
      <use xlink:href="#CMSS17-6b" transform="translate(80.835463 0) scale(0.996264)"/>
      <use xlink:href="#CMSS17-3d" transform="translate(126.437952 0) scale(0.996264)"/>
      <use xlink:href="#CMSS17-c" transform="translate(199.305887 0) scale(0.996264)"/>
      <use xlink:href="#CMSS17-74" transform="translate(249.432624 0) scale(0.996264)"/>
      <use xlink:href="#CMSS17-6d" transform="translate(314.493303 0) scale(0.996264)"/>
      <use xlink:href="#CMSS17-6f" transform="translate(388.722558 0) scale(0.996264)"/>
      <use xlink:href="#CMSS17-64" transform="translate(438.16862 0) scale(0.996264)"/>
      <use xlink:href="#CMSS17-65" transform="translate(486.373563 0) scale(0.996264)"/>
      <use xlink:href="#CMSS17-6c" transform="translate(528.012385 0) scale(0.996264)"/>
     </g>
    </g>
    <g id="line2d_18">
     <path d="M 171.088175 109.387956
L 181.088175 109.387956
L 191.088175 109.387956
" style="fill: none; stroke: #4aff77; stroke-width: 2; stroke-linecap: square"/>
    </g>
    <g id="text_17">
     <!-- tell=sample model -->
     <g transform="translate(199.088175 112.887956) scale(0.1 -0.1)">
      <use xlink:href="#CMSS17-74" transform="scale(0.996264)"/>
      <use xlink:href="#CMSS17-65" transform="translate(33.831567 0) scale(0.996264)"/>
      <use xlink:href="#CMSS17-6c" transform="translate(75.470389 0) scale(0.996264)"/>
      <use xlink:href="#CMSS17-6c" transform="translate(97.651112 0) scale(0.996264)"/>
      <use xlink:href="#CMSS17-3d" transform="translate(119.831835 0) scale(0.996264)"/>
      <use xlink:href="#CMSS17-73" transform="translate(192.69977 0) scale(0.996264)"/>
      <use xlink:href="#CMSS17-61" transform="translate(228.613312 0) scale(0.996264)"/>
      <use xlink:href="#CMSS17-6d" transform="translate(273.535232 0) scale(0.996264)"/>
      <use xlink:href="#CMSS17-70" transform="translate(347.764487 0) scale(0.996264)"/>
      <use xlink:href="#CMSS17-6c" transform="translate(395.96943 0) scale(0.996264)"/>
      <use xlink:href="#CMSS17-65" transform="translate(418.150153 0) scale(0.996264)"/>
      <use xlink:href="#CMSS17-6d" transform="translate(491.018088 0) scale(0.996264)"/>
      <use xlink:href="#CMSS17-6f" transform="translate(565.247342 0) scale(0.996264)"/>
      <use xlink:href="#CMSS17-64" transform="translate(614.693404 0) scale(0.996264)"/>
      <use xlink:href="#CMSS17-65" transform="translate(662.898348 0) scale(0.996264)"/>
      <use xlink:href="#CMSS17-6c" transform="translate(704.53717 0) scale(0.996264)"/>
     </g>
    </g>
    <g id="line2d_19">
     <path d="M 171.088175 123.325134
L 181.088175 123.325134
L 191.088175 123.325134
" style="fill: none; stroke: #1b67ff; stroke-width: 2; stroke-linecap: square"/>
    </g>
    <g id="text_18">
     <!-- avg. contr. -->
     <g transform="translate(199.088175 126.825134) scale(0.1 -0.1)">
      <defs>
       <path id="CMSS17-76" d="M 2675 2752
L 2176 2752
L 1747 1556
C 1613 1165 1421 627 1389 352
L 1382 352
C 1370 468 1318 634 1286 749
C 1248 890 1197 1056 1158 1172
L 595 2752
L 83 2752
L 1094 0
L 1664 0
L 2675 2752
z
" transform="scale(0.015625)"/>
       <path id="CMSS17-67" d="M 2848 2808
C 2483 2808 2170 2738 1914 2617
C 1702 2777 1485 2808 1338 2808
C 781 2808 358 2349 358 1814
C 358 1468 550 1207 563 1195
C 448 1035 384 863 384 672
C 384 448 474 289 544 200
C 211 -3 166 -314 166 -435
C 166 -898 749 -1280 1498 -1280
C 2253 -1280 2835 -898 2835 -428
C 2835 448 1856 448 1587 448
L 1069 448
C 973 448 717 448 717 791
C 717 921 774 1004 781 1010
C 877 940 1075 832 1338 832
C 1869 832 2310 1278 2310 1827
C 2310 2132 2170 2355 2112 2432
L 2131 2432
C 2150 2432 2419 2432 2515 2432
C 2720 2432 2739 2429 2918 2419
L 2848 2808
z
M 1338 1182
C 1120 1182 813 1315 813 1823
C 813 2375 1165 2464 1331 2464
C 1549 2464 1856 2331 1856 1823
C 1856 1271 1504 1182 1338 1182
z
M 1581 -10
C 1734 -10 2381 -10 2381 -442
C 2381 -714 1984 -929 1504 -929
C 1018 -929 621 -720 621 -435
C 621 -403 621 -10 1062 -10
L 1581 -10
z
" transform="scale(0.015625)"/>
       <path id="CMSS17-2e" d="M 1088 510
L 576 510
L 576 0
L 1088 0
L 1088 510
z
" transform="scale(0.015625)"/>
       <path id="CMSS17-63" d="M 2464 2541
C 2464 2585 2170 2714 2093 2739
C 1882 2816 1613 2816 1542 2816
C 710 2816 211 2093 211 1363
C 211 595 768 -64 1517 -64
C 1946 -64 2253 76 2502 242
L 2464 664
C 2189 453 1869 337 1523 337
C 1024 337 698 774 698 1369
C 698 1831 909 2414 1549 2414
C 1901 2414 2099 2343 2394 2145
L 2464 2541
z
" transform="scale(0.015625)"/>
      </defs>
      <use xlink:href="#CMSS17-61" transform="scale(0.996264)"/>
      <use xlink:href="#CMSS17-76" transform="translate(44.921921 0) scale(0.996264)"/>
      <use xlink:href="#CMSS17-67" transform="translate(87.922062 0) scale(0.996264)"/>
      <use xlink:href="#CMSS17-2e" transform="translate(134.765686 0) scale(0.996264)"/>
      <use xlink:href="#CMSS17-63" transform="translate(202.428698 0) scale(0.996264)"/>
      <use xlink:href="#CMSS17-6f" transform="translate(244.06752 0) scale(0.996264)"/>
      <use xlink:href="#CMSS17-6e" transform="translate(290.911143 0) scale(0.996264)"/>
      <use xlink:href="#CMSS17-74" transform="translate(339.116086 0) scale(0.996264)"/>
      <use xlink:href="#CMSS17-72" transform="translate(372.947653 0) scale(0.996264)"/>
      <use xlink:href="#CMSS17-2e" transform="translate(404.857426 0) scale(0.996264)"/>
     </g>
    </g>
   </g>
  </g>
  <g id="axes_2">
   <g id="patch_8">
    <path d="M 336.275051 196.443501
L 589.911414 196.443501
L 589.911414 24.269588
L 336.275051 24.269588
z
" style="fill: #ffffff"/>
   </g>
   <g id="matplotlib.axis_3">
    <g id="xtick_7">
     <g id="line2d_20">
      <g>
       <use xlink:href="#m7d32d713ff" x="347.803976" y="196.443501" style="stroke: #000000; stroke-width: 0.8"/>
      </g>
     </g>
     <g id="text_19">
      <!-- $\mathdefault{0}$ -->
      <g transform="translate(345.313309 210.362) scale(0.1 -0.1)">
       <use xlink:href="#CMR17-30" transform="scale(0.996264)"/>
      </g>
     </g>
    </g>
    <g id="xtick_8">
     <g id="line2d_21">
      <g>
       <use xlink:href="#m7d32d713ff" x="394.012095" y="196.443501" style="stroke: #000000; stroke-width: 0.8"/>
      </g>
     </g>
     <g id="text_20">
      <!-- $\mathdefault{100}$ -->
      <g transform="translate(386.540092 210.362) scale(0.1 -0.1)">
       <use xlink:href="#CMR17-31" transform="scale(0.996264)"/>
       <use xlink:href="#CMR17-30" transform="translate(45.690477 0) scale(0.996264)"/>
       <use xlink:href="#CMR17-30" transform="translate(91.380954 0) scale(0.996264)"/>
      </g>
     </g>
    </g>
    <g id="xtick_9">
     <g id="line2d_22">
      <g>
       <use xlink:href="#m7d32d713ff" x="440.220214" y="196.443501" style="stroke: #000000; stroke-width: 0.8"/>
      </g>
     </g>
     <g id="text_21">
      <!-- $\mathdefault{200}$ -->
      <g transform="translate(432.748211 210.362) scale(0.1 -0.1)">
       <use xlink:href="#CMR17-32" transform="scale(0.996264)"/>
       <use xlink:href="#CMR17-30" transform="translate(45.690477 0) scale(0.996264)"/>
       <use xlink:href="#CMR17-30" transform="translate(91.380954 0) scale(0.996264)"/>
      </g>
     </g>
    </g>
    <g id="xtick_10">
     <g id="line2d_23">
      <g>
       <use xlink:href="#m7d32d713ff" x="486.428332" y="196.443501" style="stroke: #000000; stroke-width: 0.8"/>
      </g>
     </g>
     <g id="text_22">
      <!-- $\mathdefault{300}$ -->
      <g transform="translate(478.956329 210.362) scale(0.1 -0.1)">
       <use xlink:href="#CMR17-33" transform="scale(0.996264)"/>
       <use xlink:href="#CMR17-30" transform="translate(45.690477 0) scale(0.996264)"/>
       <use xlink:href="#CMR17-30" transform="translate(91.380954 0) scale(0.996264)"/>
      </g>
     </g>
    </g>
    <g id="xtick_11">
     <g id="line2d_24">
      <g>
       <use xlink:href="#m7d32d713ff" x="532.636451" y="196.443501" style="stroke: #000000; stroke-width: 0.8"/>
      </g>
     </g>
     <g id="text_23">
      <!-- $\mathdefault{400}$ -->
      <g transform="translate(525.164448 210.362) scale(0.1 -0.1)">
       <use xlink:href="#CMR17-34" transform="scale(0.996264)"/>
       <use xlink:href="#CMR17-30" transform="translate(45.690477 0) scale(0.996264)"/>
       <use xlink:href="#CMR17-30" transform="translate(91.380954 0) scale(0.996264)"/>
      </g>
     </g>
    </g>
    <g id="xtick_12">
     <g id="line2d_25">
      <g>
       <use xlink:href="#m7d32d713ff" x="578.84457" y="196.443501" style="stroke: #000000; stroke-width: 0.8"/>
      </g>
     </g>
     <g id="text_24">
      <!-- $\mathdefault{500}$ -->
      <g transform="translate(571.372567 210.362) scale(0.1 -0.1)">
       <use xlink:href="#CMR17-35" transform="scale(0.996264)"/>
       <use xlink:href="#CMR17-30" transform="translate(45.690477 0) scale(0.996264)"/>
       <use xlink:href="#CMR17-30" transform="translate(91.380954 0) scale(0.996264)"/>
      </g>
     </g>
    </g>
    <g id="text_25">
     <!-- evaluations -->
     <g transform="translate(427.193076 227.368766) scale(0.16 -0.16)">
      <defs>
       <path id="CMSS17-75" d="M 2618 2739
L 2131 2739
L 2131 972
C 2131 498 1786 306 1421 306
C 998 306 960 447 960 709
L 960 2739
L 474 2739
L 474 678
C 474 179 646 -64 1088 -64
C 1306 -64 1798 -13 2144 306
L 2144 0
L 2618 0
L 2618 2739
z
" transform="scale(0.015625)"/>
      </defs>
      <use xlink:href="#CMSS17-65" transform="scale(0.996264)"/>
      <use xlink:href="#CMSS17-76" transform="translate(41.638822 0) scale(0.996264)"/>
      <use xlink:href="#CMSS17-61" transform="translate(84.638964 0) scale(0.996264)"/>
      <use xlink:href="#CMSS17-6c" transform="translate(129.560884 0) scale(0.996264)"/>
      <use xlink:href="#CMSS17-75" transform="translate(151.741607 0) scale(0.996264)"/>
      <use xlink:href="#CMSS17-61" transform="translate(199.946551 0) scale(0.996264)"/>
      <use xlink:href="#CMSS17-74" transform="translate(244.868471 0) scale(0.996264)"/>
      <use xlink:href="#CMSS17-69" transform="translate(278.700038 0) scale(0.996264)"/>
      <use xlink:href="#CMSS17-6f" transform="translate(300.880761 0) scale(0.996264)"/>
      <use xlink:href="#CMSS17-6e" transform="translate(347.724384 0) scale(0.996264)"/>
      <use xlink:href="#CMSS17-73" transform="translate(395.929328 0) scale(0.996264)"/>
     </g>
    </g>
   </g>
   <g id="matplotlib.axis_4">
    <g id="ytick_8">
     <g id="line2d_26">
      <g>
       <use xlink:href="#m52434a5c5a" x="336.275051" y="195.90943" style="stroke: #000000; stroke-width: 0.8"/>
      </g>
     </g>
     <g id="text_26">
      <!-- $\mathdefault{−10}$ -->
      <g transform="translate(311.563636 199.368679) scale(0.1 -0.1)">
       <defs>
        <path id="CMSY10-0" d="M 4218 1472
C 4326 1472 4442 1472 4442 1600
C 4442 1728 4326 1728 4218 1728
L 755 1728
C 646 1728 531 1728 531 1600
C 531 1472 646 1472 755 1472
L 4218 1472
z
" transform="scale(0.015625)"/>
       </defs>
       <use xlink:href="#CMSY10-0" transform="scale(0.996264)"/>
       <use xlink:href="#CMR17-31" transform="translate(77.487468 0) scale(0.996264)"/>
       <use xlink:href="#CMR17-30" transform="translate(123.177945 0) scale(0.996264)"/>
      </g>
     </g>
    </g>
    <g id="ytick_9">
     <g id="line2d_27">
      <g>
       <use xlink:href="#m52434a5c5a" x="336.275051" y="173.554116" style="stroke: #000000; stroke-width: 0.8"/>
      </g>
     </g>
     <g id="text_27">
      <!-- $\mathdefault{−8}$ -->
      <g transform="translate(316.544972 177.013366) scale(0.1 -0.1)">
       <defs>
        <path id="CMR17-38" d="M 1741 2264
C 2144 2467 2554 2773 2554 3263
C 2554 3841 1990 4179 1472 4179
C 890 4179 378 3759 378 3180
C 378 3021 416 2747 666 2505
C 730 2442 998 2251 1171 2130
C 883 1983 211 1634 211 934
C 211 279 838 -128 1459 -128
C 2144 -128 2720 362 2720 1010
C 2720 1590 2330 1857 2074 2029
L 1741 2264
z
M 902 2822
C 851 2854 595 3051 595 3351
C 595 3739 998 4032 1459 4032
C 1965 4032 2336 3676 2336 3262
C 2336 2669 1670 2331 1638 2331
C 1632 2331 1626 2331 1574 2370
L 902 2822
z
M 2080 1519
C 2176 1449 2483 1240 2483 851
C 2483 381 2010 25 1472 25
C 890 25 448 438 448 940
C 448 1443 838 1862 1280 2060
L 2080 1519
z
" transform="scale(0.015625)"/>
       </defs>
       <use xlink:href="#CMSY10-0" transform="scale(0.996264)"/>
       <use xlink:href="#CMR17-38" transform="translate(77.487468 0) scale(0.996264)"/>
      </g>
     </g>
    </g>
    <g id="ytick_10">
     <g id="line2d_28">
      <g>
       <use xlink:href="#m52434a5c5a" x="336.275051" y="151.198803" style="stroke: #000000; stroke-width: 0.8"/>
      </g>
     </g>
     <g id="text_28">
      <!-- $\mathdefault{−6}$ -->
      <g transform="translate(316.544972 154.658052) scale(0.1 -0.1)">
       <defs>
        <path id="CMR17-36" d="M 678 2176
C 678 3690 1395 4032 1811 4032
C 1946 4032 2272 4009 2400 3776
C 2298 3776 2106 3776 2106 3553
C 2106 3381 2246 3323 2336 3323
C 2394 3323 2566 3348 2566 3560
C 2566 3954 2246 4179 1805 4179
C 1043 4179 243 3390 243 1984
C 243 253 966 -128 1478 -128
C 2099 -128 2688 427 2688 1283
C 2688 2081 2170 2662 1517 2662
C 1126 2662 838 2407 678 1960
L 678 2176
z
M 1478 25
C 691 25 691 1200 691 1436
C 691 1896 909 2560 1504 2560
C 1613 2560 1926 2560 2138 2120
C 2253 1870 2253 1609 2253 1289
C 2253 944 2253 690 2118 434
C 1978 171 1773 25 1478 25
z
" transform="scale(0.015625)"/>
       </defs>
       <use xlink:href="#CMSY10-0" transform="scale(0.996264)"/>
       <use xlink:href="#CMR17-36" transform="translate(77.487468 0) scale(0.996264)"/>
      </g>
     </g>
    </g>
    <g id="ytick_11">
     <g id="line2d_29">
      <g>
       <use xlink:href="#m52434a5c5a" x="336.275051" y="128.843489" style="stroke: #000000; stroke-width: 0.8"/>
      </g>
     </g>
     <g id="text_29">
      <!-- $\mathdefault{−4}$ -->
      <g transform="translate(316.544972 132.302738) scale(0.1 -0.1)">
       <use xlink:href="#CMSY10-0" transform="scale(0.996264)"/>
       <use xlink:href="#CMR17-34" transform="translate(77.487468 0) scale(0.996264)"/>
      </g>
     </g>
    </g>
    <g id="ytick_12">
     <g id="line2d_30">
      <g>
       <use xlink:href="#m52434a5c5a" x="336.275051" y="106.488175" style="stroke: #000000; stroke-width: 0.8"/>
      </g>
     </g>
     <g id="text_30">
      <!-- $\mathdefault{−2}$ -->
      <g transform="translate(316.544972 109.947424) scale(0.1 -0.1)">
       <use xlink:href="#CMSY10-0" transform="scale(0.996264)"/>
       <use xlink:href="#CMR17-32" transform="translate(77.487468 0) scale(0.996264)"/>
      </g>
     </g>
    </g>
    <g id="ytick_13">
     <g id="line2d_31">
      <g>
       <use xlink:href="#m52434a5c5a" x="336.275051" y="84.132862" style="stroke: #000000; stroke-width: 0.8"/>
      </g>
     </g>
     <g id="text_31">
      <!-- $\mathdefault{0}$ -->
      <g transform="translate(324.293715 87.592111) scale(0.1 -0.1)">
       <use xlink:href="#CMR17-30" transform="scale(0.996264)"/>
      </g>
     </g>
    </g>
    <g id="ytick_14">
     <g id="line2d_32">
      <g>
       <use xlink:href="#m52434a5c5a" x="336.275051" y="61.777548" style="stroke: #000000; stroke-width: 0.8"/>
      </g>
     </g>
     <g id="text_32">
      <!-- $\mathdefault{2}$ -->
      <g transform="translate(324.293715 65.236797) scale(0.1 -0.1)">
       <use xlink:href="#CMR17-32" transform="scale(0.996264)"/>
      </g>
     </g>
    </g>
    <g id="ytick_15">
     <g id="line2d_33">
      <g>
       <use xlink:href="#m52434a5c5a" x="336.275051" y="39.422234" style="stroke: #000000; stroke-width: 0.8"/>
      </g>
     </g>
     <g id="text_33">
      <!-- $\mathdefault{4}$ -->
      <g transform="translate(324.293715 42.881483) scale(0.1 -0.1)">
       <use xlink:href="#CMR17-34" transform="scale(0.996264)"/>
      </g>
     </g>
    </g>
   </g>
   <g id="line2d_34">
    <path d="M 347.803976 97.964613
L 348.266057 113.883282
L 348.728139 89.280596
L 349.19022 43.742443
L 349.652301 121.575826
L 350.114382 89.951497
L 350.576463 79.769452
L 351.038545 131.474003
L 351.500626 104.867527
L 351.962707 69.713354
L 352.424788 80.18504
L 352.886869 87.457163
L 353.34895 125.876972
L 353.811032 86.159926
L 354.273113 87.293284
L 354.735194 32.095675
L 355.197275 115.372183
L 355.659356 72.549816
L 356.121438 48.724092
L 356.583519 132.405849
L 357.0456 43.312792
L 357.507681 130.937061
L 358.893925 67.57427
L 359.356006 122.873571
L 359.818087 53.995608
L 360.280168 75.270631
L 360.742249 148.22316
L 361.204331 64.303826
L 361.666412 146.23697
L 362.128493 104.713471
L 362.590574 151.534439
L 363.052655 154.707117
L 363.514737 98.754133
L 363.976818 122.384124
L 364.438899 130.849229
L 364.90098 92.471984
L 365.363061 128.353685
L 365.825143 92.262794
L 366.287224 95.533287
L 366.749305 148.641479
L 367.211386 92.582832
L 367.673467 146.403354
L 368.135548 101.990779
L 368.59763 138.008029
L 369.059711 129.354922
L 369.521792 157.210401
L 369.983873 114.661494
L 370.445954 141.54165
L 370.908036 115.924917
L 371.370117 115.453744
L 371.832198 144.452155
L 372.294279 84.60197
L 372.75636 152.933159
L 373.218442 129.843249
L 373.680523 131.964036
L 374.142604 160.464606
L 374.604685 137.054724
L 375.066766 134.797769
L 375.528847 150.073987
L 375.990929 154.520959
L 376.45301 162.723022
L 376.915091 137.798398
L 377.377172 139.37113
L 377.839253 109.594979
L 378.301335 139.202129
L 378.763416 142.064723
L 379.225497 133.670197
L 379.687578 168.079071
L 380.149659 177.102032
L 381.073822 124.024965
L 381.535903 165.896356
L 381.997984 151.889795
L 382.460065 126.781275
L 382.922146 164.734092
L 383.384228 111.988159
L 383.846309 140.557965
L 384.30839 145.707443
L 384.770471 148.285382
L 385.232552 164.786032
L 386.156715 153.30135
L 386.618796 135.498062
L 387.080877 162.585259
L 387.542958 174.488271
L 388.005039 132.261158
L 388.467121 141.586405
L 388.929202 140.09173
L 389.391283 160.641954
L 389.853364 149.902555
L 390.315445 144.588489
L 391.239608 157.463151
L 391.701689 175.501798
L 392.16377 158.460656
L 392.625851 164.450055
L 393.087933 112.077854
L 393.550014 159.829636
L 394.012095 159.448579
L 394.474176 156.375308
L 394.936257 160.628293
L 395.398338 112.428565
L 396.322501 172.23664
L 396.784582 137.2977
L 397.246663 144.427718
L 397.708744 149.411125
L 398.170826 165.884806
L 398.632907 162.415181
L 399.094988 167.211717
L 399.557069 143.573347
L 400.01915 173.587876
L 400.481232 159.550871
L 400.943313 140.944821
L 401.405394 164.810091
L 401.867475 152.505721
L 402.329556 165.571822
L 402.791637 111.89451
L 403.253719 175.912532
L 403.7158 132.496783
L 404.177881 139.461866
L 404.639962 156.013145
L 405.102043 177.208354
L 405.564125 99.791709
L 406.026206 157.402598
L 406.488287 143.867745
L 406.950368 143.846649
L 407.412449 150.168486
L 407.874531 132.78858
L 408.336612 181.828533
L 408.798693 162.485339
L 409.260774 104.299827
L 409.722855 172.652128
L 410.184936 134.241789
L 410.647018 169.021369
L 411.109099 157.341655
L 411.57118 174.661898
L 412.033261 154.922569
L 412.495342 175.986128
L 412.957424 176.636293
L 413.419505 169.886656
L 413.881586 176.337157
L 414.343667 160.239113
L 414.805748 135.513055
L 415.26783 143.802305
L 415.729911 180.217265
L 416.191992 157.189321
L 416.654073 167.667516
L 417.116154 175.577024
L 417.578235 168.540776
L 418.040317 156.988633
L 418.502398 176.488708
L 418.964479 183.0167
L 419.42656 175.129897
L 420.350723 181.874807
L 420.812804 181.998131
L 421.274885 162.393995
L 421.736966 182.159265
L 423.12321 161.81338
L 423.585291 178.927392
L 424.509453 160.096058
L 424.971534 154.192034
L 425.433616 179.674956
L 425.895697 157.395775
L 426.357778 174.470063
L 426.819859 163.926198
L 427.28194 175.407117
L 427.744022 182.095423
L 428.206103 174.900934
L 428.668184 161.967399
L 429.592346 177.198387
L 430.054428 176.445876
L 430.97859 165.886672
L 431.440671 179.930835
L 431.902752 182.404644
L 432.364833 173.493249
L 432.826915 157.45668
L 433.288996 170.772393
L 433.751077 156.786869
L 434.213158 177.300028
L 434.675239 184.386767
L 435.137321 182.98358
L 435.599402 165.43237
L 436.061483 181.863316
L 436.523564 173.34263
L 436.985645 180.952336
L 437.447727 157.853818
L 437.909808 166.056179
L 438.371889 184.711615
L 438.83397 181.310667
L 439.296051 180.647145
L 439.758132 179.221273
L 440.220214 182.354575
L 440.682295 176.857122
L 441.144376 177.421209
L 441.606457 185.245333
L 442.068538 162.963305
L 442.53062 180.953573
L 442.992701 176.892993
L 443.454782 183.934939
L 443.916863 180.50199
L 444.378944 175.418065
L 444.841026 181.037924
L 445.303107 180.095189
L 445.765188 185.833852
L 446.227269 183.583154
L 446.68935 179.33867
L 447.151431 180.211797
L 447.613513 185.027659
L 448.075594 186.81541
L 448.537675 180.712394
L 448.999756 184.965725
L 449.461837 183.362665
L 449.923919 183.030878
L 450.386 181.658146
L 450.848081 185.586789
L 451.310162 184.6789
L 451.772243 185.850694
L 452.234325 181.118566
L 452.696406 182.961919
L 453.158487 183.556429
L 453.620568 181.813001
L 454.082649 185.644522
L 454.54473 185.051419
L 455.006812 180.72348
L 455.468893 184.268496
L 455.930974 181.279529
L 456.855136 183.284955
L 457.317218 185.573613
L 457.779299 180.240056
L 458.24138 184.634491
L 458.703461 186.223661
L 459.165542 183.835728
L 459.627624 182.901233
L 460.551786 185.665938
L 461.013867 184.799335
L 461.475948 178.427317
L 461.938029 185.441324
L 462.400111 186.334225
L 462.862192 184.376832
L 463.324273 187.468678
L 463.786354 186.542966
L 464.248435 186.779391
L 464.710517 183.861877
L 465.172598 184.966674
L 465.634679 186.646036
L 466.09676 185.061482
L 466.558841 185.489752
L 467.020923 184.552549
L 467.483004 181.514025
L 467.945085 185.832871
L 468.407166 183.824876
L 468.869247 187.174402
L 469.331328 187.295231
L 469.79341 186.68648
L 470.255491 187.343925
L 470.717572 183.767175
L 471.179653 186.606509
L 471.641734 185.681672
L 472.565897 185.796425
L 473.027978 186.522105
L 473.490059 186.614014
L 473.95214 187.021273
L 474.414221 187.599261
L 474.876303 186.735248
L 475.338384 187.289603
L 475.800465 186.760256
L 476.262546 187.778549
L 476.724627 187.014856
L 477.186709 188.043403
L 477.64879 187.451654
L 478.110871 187.106509
L 478.572952 187.246985
L 479.035033 185.823096
L 479.497115 185.171705
L 479.959196 184.063358
L 480.421277 186.50846
L 480.883358 187.761503
L 481.345439 187.095071
L 481.80752 187.471225
L 482.269602 186.464552
L 482.731683 187.528735
L 483.193764 186.855683
L 483.655845 186.888153
L 484.117926 187.289944
L 484.580008 186.088857
L 485.042089 187.721359
L 485.50417 187.930036
L 485.966251 187.201382
L 486.428332 188.309228
L 486.890414 187.193387
L 487.352495 187.768603
L 488.276657 187.509078
L 488.738738 187.492161
L 489.200819 187.622755
L 489.662901 188.234737
L 490.124982 187.950129
L 490.587063 186.600742
L 491.049144 187.777781
L 491.511225 188.270575
L 492.435388 187.297512
L 492.897469 187.609825
L 493.35955 187.749031
L 493.821631 188.31976
L 494.283713 188.217862
L 494.745794 187.035813
L 495.207875 187.883143
L 495.669956 188.27857
L 496.132037 186.808396
L 496.594118 186.10102
L 497.0562 187.247027
L 497.980362 188.037913
L 498.442443 187.816306
L 498.904524 187.354233
L 499.366606 186.703269
L 499.828687 184.372035
L 500.290768 187.670021
L 500.752849 188.300028
L 501.21493 188.027936
L 501.677012 187.394176
L 502.139093 187.834438
L 502.601174 187.93415
L 503.063255 188.338286
L 503.525336 188.092577
L 503.987417 186.746526
L 504.449499 188.24432
L 504.91158 188.05773
L 505.373661 187.538617
L 505.835742 187.59537
L 506.297823 187.374263
L 506.759905 187.980414
L 507.221986 188.265767
L 508.146148 186.781501
L 508.608229 187.839725
L 509.070311 187.585616
L 509.532392 188.193387
L 510.456554 187.832871
L 511.380716 188.309707
L 511.842798 187.776107
L 512.76696 187.735131
L 513.691122 187.651355
L 514.153204 187.969808
L 514.615285 188.05417
L 515.077366 187.834278
L 515.539447 187.994464
L 516.001528 188.494314
L 516.46361 188.069989
L 516.925691 188.427157
L 517.387772 187.650545
L 518.311934 188.36549
L 518.774015 188.320538
L 519.236097 187.891298
L 519.698178 188.49118
L 520.160259 188.457517
L 521.084421 187.904441
L 521.546503 188.284966
L 522.008584 188.121444
L 522.470665 187.733415
L 522.932746 187.947891
L 523.394827 188.479497
L 523.856909 188.192801
L 524.781071 188.244885
L 525.243152 188.501009
L 526.167314 188.341282
L 526.629396 187.96952
L 527.091477 187.793973
L 527.553558 188.52591
L 528.47772 188.44142
L 529.401883 188.561813
L 529.863964 188.350886
L 530.326045 188.498994
L 531.250208 188.309899
L 531.712289 188.501787
L 532.636451 188.564094
L 533.098532 188.419013
L 533.560613 188.463049
L 534.022695 188.055481
L 534.946857 188.56629
L 536.795182 188.294901
L 537.257263 188.533116
L 537.719344 188.340354
L 538.181425 188.500828
L 539.105588 188.554607
L 539.567669 188.441335
L 540.02975 188.514216
L 540.953912 188.372568
L 541.415994 188.539459
L 541.878075 188.586448
L 542.340156 188.449245
L 545.112643 188.483921
L 545.574724 188.319557
L 546.960968 188.567857
L 547.88513 188.343712
L 548.347211 188.479124
L 550.657617 188.439864
L 551.119699 188.576577
L 552.043861 188.416007
L 552.505942 188.557421
L 553.892186 188.537434
L 555.278429 188.539448
L 556.664673 188.508823
L 558.512998 188.510955
L 558.975079 188.579487
L 559.899241 188.394485
L 560.361322 188.599847
L 561.747566 188.572174
L 562.209647 188.423874
L 562.671728 188.582994
L 563.133809 188.465512
L 563.595891 188.611018
L 564.057972 188.527467
L 565.906297 188.584273
L 566.830459 188.599015
L 567.29254 188.532317
L 568.216702 188.584465
L 578.382489 188.601211
L 578.382489 188.601211
" clip-path="url(#p275ec70395)" style="fill: none; stroke: #000000; stroke-linecap: square"/>
   </g>
   <g id="patch_9">
    <path d="M 336.275051 196.443501
L 336.275051 24.269588
" style="fill: none; stroke: #000000; stroke-width: 0.8; stroke-linejoin: miter; stroke-linecap: square"/>
   </g>
   <g id="patch_10">
    <path d="M 589.911414 196.443501
L 589.911414 24.269588
" style="fill: none; stroke: #000000; stroke-width: 0.8; stroke-linejoin: miter; stroke-linecap: square"/>
   </g>
   <g id="patch_11">
    <path d="M 336.275051 196.443501
L 589.911414 196.443501
" style="fill: none; stroke: #000000; stroke-width: 0.8; stroke-linejoin: miter; stroke-linecap: square"/>
   </g>
   <g id="patch_12">
    <path d="M 336.275051 24.269588
L 589.911414 24.269588
" style="fill: none; stroke: #000000; stroke-width: 0.8; stroke-linejoin: miter; stroke-linecap: square"/>
   </g>
   <g id="text_34">
    <!-- cost fun. evals. -->
    <g transform="translate(413.514877 18.269588) scale(0.16 -0.16)">
     <defs>
      <path id="CMSS17-66" d="M 1075 2368
L 1722 2368
L 1722 2737
L 1062 2737
L 1062 3559
C 1062 4014 1408 4092 1606 4092
C 1670 4092 1850 4092 2080 4009
L 2080 4429
C 1933 4461 1754 4480 1613 4480
C 1018 4480 602 3993 602 3359
L 602 2737
L 160 2737
L 160 2368
L 602 2368
L 602 0
L 1075 0
L 1075 2368
z
" transform="scale(0.015625)"/>
     </defs>
     <use xlink:href="#CMSS17-63" transform="scale(0.996264)"/>
     <use xlink:href="#CMSS17-6f" transform="translate(41.638822 0) scale(0.996264)"/>
     <use xlink:href="#CMSS17-73" transform="translate(88.482446 0) scale(0.996264)"/>
     <use xlink:href="#CMSS17-74" transform="translate(124.395988 0) scale(0.996264)"/>
     <use xlink:href="#CMSS17-66" transform="translate(189.456667 0) scale(0.996264)"/>
     <use xlink:href="#CMSS17-75" transform="translate(218.083326 0) scale(0.996264)"/>
     <use xlink:href="#CMSS17-6e" transform="translate(266.288269 0) scale(0.996264)"/>
     <use xlink:href="#CMSS17-2e" transform="translate(314.493212 0) scale(0.996264)"/>
     <use xlink:href="#CMSS17-65" transform="translate(382.156224 0) scale(0.996264)"/>
     <use xlink:href="#CMSS17-76" transform="translate(423.795046 0) scale(0.996264)"/>
     <use xlink:href="#CMSS17-61" transform="translate(466.795188 0) scale(0.996264)"/>
     <use xlink:href="#CMSS17-6c" transform="translate(511.717108 0) scale(0.996264)"/>
     <use xlink:href="#CMSS17-73" transform="translate(533.897831 0) scale(0.996264)"/>
     <use xlink:href="#CMSS17-2e" transform="translate(569.811373 0) scale(0.996264)"/>
    </g>
   </g>
  </g>
 </g>
 <defs>
  <clipPath id="pa2ef743785">
   <rect x="31.911414" y="24.269588" width="253.636364" height="172.173913"/>
  </clipPath>
  <clipPath id="p275ec70395">
   <rect x="336.275051" y="24.269588" width="253.636364" height="172.173913"/>
  </clipPath>
 </defs>
</svg>
